<?xml version="1.0" encoding="utf-8"?>
<!-- Generator: Adobe Illustrator 22.0.1, SVG Export Plug-In . SVG Version: 6.00 Build 0)  -->
<svg version="1.1" id="Calque_1" xmlns="http://www.w3.org/2000/svg" xmlns:xlink="http://www.w3.org/1999/xlink" x="0px" y="0px"
	 viewBox="0 0 40 40" style="enable-background:new 0 0 40 40;" xml:space="preserve">
<style type="text/css">
	.st0{fill:#FFFFFF;}
</style>
<g>
	<g>
		<path class="st0" d="M32.6,19.3c0,7-5.7,12.6-12.6,12.6S7.3,26.3,7.3,19.3"/>
		<path d="M19.9,32.5c-7.2,0-13.1-5.9-13.1-13.1h1c0,6.7,5.4,12.1,12.1,12.1S32.1,26,32.1,19.3h1C33.1,26.6,27.2,32.5,19.9,32.5z"/>
	</g>
</g>
<g>
	<g>
		<circle cx="12.7" cy="11.3" r="1.9"/>
	</g>
	<g>
		<circle cx="27.3" cy="11.3" r="1.9"/>
	</g>
</g>
<path d="M20,37.4c-9.9,0-18-8.1-18-18s8.1-18,18-18s18,8.1,18,18S29.9,37.4,20,37.4z M20,2.3c-9.4,0-17,7.6-17,17s7.6,17,17,17
	s17-7.6,17-17S29.4,2.3,20,2.3z"/>
</svg>
